<svg
  enable-background="new 0 0 512 512"
  height="512px"
  version="1.1"
  viewBox="0 0 512 512"
  width="512px"
  xml:space="preserve"
  xmlns="http://www.w3.org/2000/svg"
  xmlns:xlink="http://www.w3.org/1999/xlink"
>
  <g id="Reaper">
    <linearGradient gradientUnits="userSpaceOnUse" id="SVGID_1" x1="256" x2="256" y1="94.186" y2="719.8057">
      <stop offset="0.0103" style="stop-color:#B7858F" />
      <stop offset="1" style="stop-color:#8E545C" />
    </linearGradient>
    <path
      d="M140.682,238.054c0,0,1.906-95.292,4.765-124.832c2.858-29.54,25.729-103.867,124.832-101.962  c0,0,96.03,2.771,102.667,121.019c0.212,3.77,0.21,7.537,0.142,11.312c-0.337,18.585-1.305,78.797-0.29,108.824  c0.155,4.615,0.983,9.178,2.645,13.487c1.47,3.815,3.169,9.509,3.452,15.96c0.415,9.47,2.31,18.796,6.422,27.336  c6.047,12.559,15.538,29.74,27.402,42.877c7.521,8.326,11.207,19.658,8.915,30.641c-1.308,6.268-4.275,12.631-10.323,17.334  c0,0,31.446,37.164-7.623,74.328c0,0-15.246,15.245-36.866,23.559c-5.873,2.258-12.173,3.155-18.453,2.743  c-36.916-2.422-182.918-20.288-253.227-151.872c-4.962-9.287-7.369-19.866-6.063-30.314c1.574-12.596,8.247-26.871,29.688-29.934  c0,0-5.993-20.257,9.921-29.484C136.105,254.771,140.463,246.628,140.682,238.054L140.682,238.054z"
      fill="url(#SVGID_1)"
    />
    <path
      d="M403.687,474.377c39.069-37.164,7.623-74.328,7.623-74.328c6.05-4.705,9.017-11.069,10.324-17.338  c2.288-10.969-1.37-22.291-8.885-30.604c-11.988-13.26-21.556-30.657-27.6-43.254c-4.036-8.414-5.856-17.619-6.254-26.941  c-0.274-6.422-1.954-12.098-3.42-15.922c-1.692-4.416-2.53-9.096-2.688-13.822c-1.001-30.107-0.037-90.043,0.299-108.578  c0.068-3.775,0.07-7.542-0.142-11.312C366.309,14.03,270.278,11.26,270.278,11.26c-4.109-0.079-8.041,0.019-11.892,0.193  c9.824,5.32,22.23,14.754,27.866,30.157c2.907,7.943-0.884,16.93-8.601,20.392c-20.749,9.307-61.363,40.356-54.3,139.831  c0,0-11.532,84.332,64.87,139.71c8.239,5.972,13.885,14.955,15.813,24.946c1.562,8.094,2.425,18.178,0.634,28.623  c-1.771,10.322-12.778,16.402-22.378,12.213c-4.459-1.947-9.302-4.439-13.809-7.543c-2.165-1.49-5.057-1.816-7.252-0.371  c-3.317,2.182-3.799,6.651-1.256,9.439c5.041,5.527,14.41,15.099,25.378,22.932c0,0-23.136,35.329-86.833,23.457  c62.536,36.506,127.028,43.941,149.847,45.438c6.28,0.412,12.58-0.485,18.453-2.743C388.44,489.622,403.687,474.377,403.687,474.377  z"
      fill="#8E545C"
    />
    <path
      d="M306.662,82.986c15.482,7.376,29.516,21.443,33.566,47.798c0.445,2.895,0.64,5.823,0.788,8.749  l5.891,116.339c0.786,15.532,3.756,30.824,7.976,45.793c3.354,11.897,4.043,26.934-11.16,32.049  c-1.426,0.48-2.932,0.686-4.435,0.731c-13.874,0.425-83.462-2.767-131.959-104.181c-3.713-7.764-6.297-16.021-7.771-24.5  c-3.625-20.871-7.173-60.763,10.25-92.058C228.784,79.623,271.447,66.207,306.662,82.986z"
      fill="#602E3A"
    />
    <linearGradient
      gradientUnits="userSpaceOnUse"
      id="SVGID_2"
      x1="260.7676"
      x2="260.7676"
      y1="213.2178"
      y2="-35.5389"
    >
      <stop offset="0.0051" style="stop-color:#FFE1FF" />
      <stop offset="1" style="stop-color:#E5B4F7" />
    </linearGradient>
    <path
      d="M293.045,78.065c-31.983-8.14-66.654,5.856-83.236,35.64c-16.132,28.975-14.283,65.291-11.043,87.085  c9.336,8.037,20.426,9.407,27.803,9.192c4.758-0.138,8.85,3.307,9.597,8.007l1.984,12.474c0.543,3.413,3.485,5.924,6.941,5.924  h8.128c3.63,0,6.662-2.764,6.999-6.377l1.345-14.459c0.313-3.354,3.126-5.918,6.494-5.918c3.34,0,6.141,2.524,6.486,5.847  l1.521,14.607c0.373,3.581,3.391,6.301,6.991,6.301h6.872c3.882,0,7.029-3.147,7.029-7.029v-12.244c0-3.489,2.745-6.36,6.23-6.516  l0.897-0.04c3.713-0.166,6.813,2.799,6.813,6.516v9.795c0,3.882,3.146,7.029,7.028,7.029s7.028-3.147,7.028-7.029v-90.655  C324.954,106.253,307.04,87.868,293.045,78.065z"
      fill="url(#SVGID_2)"
    />
    <path
      d="M263.313,131.162c-8.324-0.061-24.607,1.906-31.325,17.268c-2.392,5.467-2.954,11.668-1.221,17.378  c0.04,0.131,0.081,0.263,0.123,0.396c3.774,11.81,18.328,16.115,28.172,8.576c0.396-0.303,0.799-0.617,1.206-0.938  c10.226-8.086,15.297-21.49,11.974-34.097c-0.284-1.078-0.628-2.144-1.041-3.184C269.916,133.33,266.788,131.187,263.313,131.162z"
      fill="#602E3A"
    />
    <path
      d="M299.643,135.715c5.952,1.202,16.58,5.126,17.249,17.848c0.133,2.528-0.563,5.036-1.74,7.276l-0.122,0.232  c-3.698,6.912-13.241,7.924-18.5,2.109c-0.136-0.151-0.273-0.304-0.412-0.46c-5.59-6.304-7.354-15.46-3.676-23.04  c0.147-0.304,0.303-0.604,0.468-0.9C294.238,136.391,296.963,135.174,299.643,135.715z"
      fill="#602E3A"
    />
    <path
      d="M289.792,173.509c1.421,2.217,2.922,4.826,4.123,7.543c1.187,2.685-0.855,5.7-3.791,5.7h-5.948  c-2.73,0-4.699-2.602-3.949-5.227c0.572-2.003,1.307-4.448,2.178-7.092C283.496,171.12,287.909,170.573,289.792,173.509z"
      fill="#602E3A"
    />
    <path
      d="M168.611,316.805c12.878,11.869,32.53,28.943,48.895,38.721c4.314,2.578,5.058,8.502,1.414,11.964l0,0  c-2.843,2.7-7.269,2.782-10.188,0.165c-9.426-8.451-29.651-27.514-43.893-47.533C163.09,317.662,166.392,314.76,168.611,316.805z"
      fill="#8E545C"
    />
    <path
      d="M322.023,116.188c-5.646-18.444-18.422-30.73-28.979-38.124c-27.79-7.072-57.594,2.583-75.813,24.771  C238.556,93.726,284.377,80.862,322.023,116.188z"
      fill="#E5B4F7"
    />
  </g>
  <g id="Ninja">
    <polygon
      points="69.628 79.019 85.371 62.821 129.465 111.459 111.905 121.303 69.628 79.019"
      style="fill:#e9ebfc"
    />
    <path
      d="M129.963,109.526,85.606,62.58,69.628,79.019l9.5,9.506,3.744-2.417A8.609,8.609,0,0,1,93.81,87.435l26.664,28.28Z"
      style="fill:#acb9d4"
    />
    <path
      d="M96.642,112.583l22.264-21.417L293.838,297.7a6.2,6.2,0,0,1,1.317,3.333A9.973,9.973,0,0,1,285.57,312.1c-.091,0-.182.006-.273.008-8.665.152-16.53-3.8-20.588-8.211L96.448,118.259A4.076,4.076,0,0,1,96.642,112.583Z"
      style="fill:#414151"
    />
    <path
      d="M95.57,44.889h0a8.2,8.2,0,0,1,.9,11.749l-26.8,30.215a8.375,8.375,0,0,1-12.29.262L49,78.437,84.758,45.2A8.2,8.2,0,0,1,95.57,44.889Z"
      style="fill:#414151"
    />
    <path
      d="M28.283,71.586,52.7,83.628l.377,6.427a19.244,19.244,0,0,0,.508,8.654l.545,9.3c-.524,3.9-.022,8.4.767,13.064l.8,13.559L18.552,160.421a218.378,218.378,0,0,1,.179-48.326,16.209,16.209,0,0,0,1.089-8.069A157.6,157.6,0,0,1,28.283,71.586Z"
      style="fill:#414151"
    />
    <path
      d="M18.552,160.421s15.82-22.01,37.142-25.793l4.186,5.443a9.954,9.954,0,0,0,7.092,3.853L91.46,145.9l15.131,80.36L32.7,177.487A34.362,34.362,0,0,1,22.09,166.371Z"
      style="fill:#696987"
    />
    <path
      d="M241.683,148.357s13.76,2.218,31.382,21.858q4.974,5.544,10.48,10.582l19.135,17.471-29.808,27.991-29.461-8.9a94.836,94.836,0,0,1-10.637-3.921l-9.5-4.164Z"
      style="fill:#696987"
    />
    <path
      d="M91.46,145.9l-13.217-1.066-1.3,3.646a56.186,56.186,0,0,0-2.335,28.926l5.762,31.549,26.218,17.3Z"
      style="fill:#414151"
    />
    <path
      d="M253.8,175.437V153.662c-7.415-4.541-12.114-5.305-12.114-5.305l-18.411,60.917,9.5,4.164a94.867,94.867,0,0,0,9.715,3.628l7.152-18.9A64.207,64.207,0,0,0,253.8,175.437Z"
      style="fill:#414151"
    />
    <path
      d="M144.874,125.523l-4.832,12.541c6.314,19.831,17.281,35.187,29.733,49.115l33.91-59.011Z"
      style="fill:#ffc4b6"
    />
    <path
      d="M169.775,187.179l33.909-59.011-58.81-2.645-4.832,12.541c.6,1.892,1.26,3.731,1.944,5.544l25.246,5.348a3.686,3.686,0,0,1,2.545,5.231L159.609,174.9C162.832,179.15,166.24,183.225,169.775,187.179Z"
      style="fill:#ea8b7f"
    />
    <path
      d="M143.493,128.168l-21.336,13.1H94.413a9.021,9.021,0,0,0-8.813,7.045c-1.2,5.407-2.385,13.2-1.538,20.754a24.169,24.169,0,0,0,.447,2.56c1.473,6.581,8.5,36.239,20.076,57.659a34.262,34.262,0,0,1,4.174,17.786,141.229,141.229,0,0,1-2.21,20.54,10.775,10.775,0,0,0,2.34,9.129l11.618,13.639h61.36l4.619-85.777S153.624,164.879,143.493,128.168Z"
      style="fill:#696987"
    />
    <path
      d="M165.579,203.2h19.933c-5.507-6.885-32.923-42.269-42.019-75.231l-21.336,13.1S134.866,174.9,165.579,203.2Z"
      style="fill:#414151"
    />
    <path
      d="M197.181,130.386s-35.275,45.936-59.323,119.1c0,0-5.073,12.4,2.184,24.7,0,0,6.236,9.178,8.129,16.192H212l8.682-14.756a11.33,11.33,0,0,0,1-9.262l-4.708-14.412a21.794,21.794,0,0,1,1.2-16.472L238.2,195.224a68.863,68.863,0,0,0,6.56-21.27l3.213-23.34a7.468,7.468,0,0,0-7.836-8.474l-4.252.25a18.029,18.029,0,0,1-5.432-.506l-15.3-3.82-11.466-12.541Z"
      style="fill:#696987"
    />
    <path
      d="M153.261,267.645q-.189-.6-.351-1.178a30.008,30.008,0,0,1,.145-16c13.784-49.994,62.1-112.407,62.1-112.407l-11.467-12.541-7.139,2.838s-37.367,48.25-61.415,121.414c0,0-4.187,12.614,3.07,24.914,0,0,6,8.677,7.887,15.691h17.767c0-4.623-4.613-11.966-6.954-15.394A28.244,28.244,0,0,1,153.261,267.645Z"
      style="fill:#414151"
    />
    <path
      d="M211.518,56.076a33.223,33.223,0,0,0-6.488-7.843A163.072,163.072,0,0,0,176.1,27.976a12.769,12.769,0,0,0-12.363,0A163.054,163.054,0,0,0,134.8,48.233a33.491,33.491,0,0,0-6.577,7.993c-12.274,20.79-12.047,44.561-11.445,53.378a10.943,10.943,0,0,0,2.411,6.227c19.191,23.345,50.724,22.224,50.724,22.224s31.533,1.121,50.724-22.224a10.953,10.953,0,0,0,2.411-6.227C223.654,100.764,223.881,76.9,211.518,56.076Z"
      style="fill:#696987"
    />
    <path
      d="M208.969,88.034a11.854,11.854,0,0,0-1-8.465c-7.066-13.266-19.428-21.5-28.135-25.956a21.772,21.772,0,0,0-19.782,0c-8.739,4.462-21.16,12.732-28.22,26.063a11.9,11.9,0,0,0-1.038,8.273c2.209,9.472,5.16,32.614,27.06,44.857,0,0,13.948,2.821,23.24.7C202.932,121.282,206.567,97.6,208.969,88.034Z"
      style="fill:#414151"
    />
    <path
      d="M193.751,82.428A63.9,63.9,0,0,0,176.74,66.459a12.419,12.419,0,0,0-13.7.031,63.946,63.946,0,0,0-16.957,15.931,19.152,19.152,0,0,0-3.4,12.348,91.607,91.607,0,0,0,1.525,12.258s4.074,12.478,7.567,17.283a33.425,33.425,0,0,0,14.753,12.633,51.148,51.148,0,0,0,6.766,0,33.426,33.426,0,0,0,14.752-12.633c3.545-4.876,7.62-17.554,7.62-17.554a92.229,92.229,0,0,0,1.473-11.992A19.143,19.143,0,0,0,193.751,82.428Z"
      style="fill:#ffc4b6"
    />
    <path
      d="M187.029,126.829a26.857,26.857,0,0,0,2.085-2.841c3.753-5,8.067-18,8.067-18a91.723,91.723,0,0,0,1.559-12.3,19.4,19.4,0,0,0-3.735-12.834A66.925,66.925,0,0,0,177.14,64.674a13.506,13.506,0,0,0-14.5.032,66.925,66.925,0,0,0-17.877,16.238A19.361,19.361,0,0,0,141.1,93.763a91.115,91.115,0,0,0,1.611,12.5s4.312,12.793,8.01,17.72a33.491,33.491,0,0,0,5.446,6.4c-.116-.291-7.752-19.426-9.326-34.073a15.741,15.741,0,0,1,2.2-9.885A43.937,43.937,0,0,1,162.2,72.883a13.119,13.119,0,0,1,15.676.9,54.943,54.943,0,0,1,11.854,13.448,15.7,15.7,0,0,1,2.362,8.687c-.121,6.87-.984,19.953-5.385,30.909Z"
      style="fill:#ea8b7f"
    />
    <path
      d="M173.5,137.94c10.321-4.135,16.471-13.952,16.471-13.952,3.754-5,5.941-11.672,7.212-18-4.984-2.254-13.245-4.849-22.259-7.679a16.514,16.514,0,0,0-10.054.037c-8.877,2.857-17.14,5.676-22.159,7.92,1.279,6.242,3.456,12.792,7.155,17.72,0,0,6.15,9.817,16.472,13.952a55.812,55.812,0,0,0,7.162,0Z"
      style="fill:#414151"
    />
    <path
      d="M249.471,238.259l9.591-8.122a18.717,18.717,0,0,0,6.4-5.418l12.573-10.647c4.2-2.413,7.688-5.125,9.9-8.382L299.8,195.639l19.656,15.068a11.617,11.617,0,0,1,3.2,14.883,19.057,19.057,0,0,1-3.538,4.452,20.67,20.67,0,0,1-4.131,2.94l-42.128,23.437Z"
      style="fill:#414151"
    />
    <path
      d="M249.471,238.259l-24.319,20.594a5.8,5.8,0,0,0-.5,8.374l7.976,8.562A15.5,15.5,0,0,0,252.747,278l13.156-9.028a15.462,15.462,0,0,0,6.43-9.812l.531-2.745Z"
      style="fill:#ffc4b6"
    />
    <path d="M28.283,71.586s6.181-18.894,17.95-32.755L64.279,60.538,52.7,83.628Z" style="fill:#ea8b7f" />
    <path
      d="M19.007,19.326l2.275-2.158a10.018,10.018,0,0,1,13.9.107L73.768,55.011,58.739,71.586,19,33.86A10.017,10.017,0,0,1,19.007,19.326Z"
      style="fill:#414151"
    />
    <path
      d="M43.475,51.111l19.1,15.529L73.979,55.217a10.5,10.5,0,0,0,.343-13.773A129.761,129.761,0,0,0,62.864,28.99a12.776,12.776,0,0,0-17.434-.034,37.712,37.712,0,0,0-3.9,4.26A12.822,12.822,0,0,0,43.475,51.111Z"
      style="fill:#ffc4b6"
    />
    <path
      d="M216.976,251.95a21.774,21.774,0,0,1,.067-13.657l-.011-.034L204.67,263.18a2.373,2.373,0,0,0,3.79,2.747l9.9-9.735Z"
      style="fill:#414151"
    />
    <path
      d="M265.46,224.719l-6.4,5.418a97.332,97.332,0,0,1,23.631,20.814l7.078-3.938A103.459,103.459,0,0,0,265.46,224.719Z"
      style="fill:#696987"
    />
    <path
      d="M319.907,229.248c-9.9-10.692-22.649-18.633-31.976-23.558l-9.9,8.382c5.584,6.838,13.152,17.656,17.081,29.969l7.119-3.961a97.858,97.858,0,0,0-12.923-24.451c7.7,4.466,16.7,10.636,24,18.287l1.679-.934a20.67,20.67,0,0,0,4.131-2.94C319.4,229.78,319.653,229.514,319.907,229.248Z"
      style="fill:#696987"
    />
    <path
      d="M120.507,290.38H212v26.353a8.848,8.848,0,0,1-8.848,8.848h-73.8a8.848,8.848,0,0,1-8.848-8.848Z"
      style="fill:#414151"
    />
    <path
      d="M22.219,91.552c8.03,1.046,20.672,3.183,31.367,7.157l-.508-8.654a165.4,165.4,0,0,0-28.849-6.322Q23.116,87.645,22.219,91.552Z"
      style="fill:#696987"
    />
    <path
      d="M17.324,137.54A92.431,92.431,0,0,1,54.9,121.069l-.767-13.064a117.649,117.649,0,0,0-34.309-3.979c-.426,2.73-.788,5.425-1.09,8.069a114.485,114.485,0,0,1,28.644,2.462A100,100,0,0,0,17.531,127.6C17.383,131.11,17.322,134.444,17.324,137.54Z"
      style="fill:#696987"
    />
    <path
      d="M162.317,90.458a2.981,2.981,0,0,1-.7-.084l-3.6-.87a2.979,2.979,0,1,1,1.4-5.791l3.6.87a2.979,2.979,0,0,1-.7,5.875Z"
      style="fill:#d3625f"
    />
    <path
      d="M177.232,90.458a2.979,2.979,0,0,1-.7-5.875l3.6-.87a2.979,2.979,0,1,1,1.4,5.791l-3.6.87A2.981,2.981,0,0,1,177.232,90.458Z"
      style="fill:#d3625f"
    />
    <path
      d="M62.572,66.64s4.893-4.522,8.707-8.5a6.665,6.665,0,0,0-.116-9.324L61.49,39.149a7.924,7.924,0,0,0-11.965.874,12.993,12.993,0,0,0-.973,12.727l-1.264,1.461Z"
      style="fill:#ea8b7f"
    />
    <path
      d="M52.623,42.664l-.523.719a8.369,8.369,0,0,0,.977,10.964l1,.96a7.3,7.3,0,0,0-.944.581,9.77,9.77,0,0,0-1.1,14.876l4.748,4.725L68.1,61.916a7.918,7.918,0,0,0-.435-10.625L58.735,42.21A4.017,4.017,0,0,0,52.623,42.664Z"
      style="fill:#ffc4b6"
    />
    <path
      d="M272.333,259.164l.531-2.745-23.393-18.16-5.436,4.6,10.288,13.481a6.935,6.935,0,0,1-.757,9.255L243,275.56a11.252,11.252,0,0,1-7.043,2.928A15.5,15.5,0,0,0,252.747,278l13.156-9.028A15.462,15.462,0,0,0,272.333,259.164Z"
      style="fill:#ea8b7f"
    />
    <path
      d="M121.441,259.89,106.21,232.721l-.011.012a33.877,33.877,0,0,1,2.56,14.339c-.125,2.85-.327,6.069-.639,9.363l11.188,5.678A1.61,1.61,0,0,0,121.441,259.89Z"
      style="fill:#414151"
    />
  </g>
  <g id="Samurai">
    <path
      d="M171.415,301.451s5.706,5.25,10.438,15.654a7.052,7.052,0,0,0,9.443,3.466h0a7.048,7.048,0,0,0,3.517-8.982,49.92,49.92,0,0,0-18.665-23.36Z"
      style="fill:#ffc08d"
    />
    <path
      d="M164.722,289.209a58.957,58.957,0,0,0-17.77,19.476,6.787,6.787,0,0,0,1.566,8.346h0a6.792,6.792,0,0,0,10.123-1.427c3.006-4.6,7.512-10.5,12.774-14.153Z"
      style="fill:#ffc08d"
    />
    <path
      d="M234.613,208.287,170,277.722l-64.613-69.435-12.4-1.192S94.027,292.229,170,298.468c75.973-6.239,77.764-93.669,77.764-93.669Z"
      style="fill:#ffc08d"
    />
    <rect height="32.165" rx="7.274" style="fill:#ffc08d" width="14.548" x="162.726" y="272.409" />
    <path
      d="M189.719,77.857a12.7,12.7,0,0,1-5.425-4.342l-.954-1.335a12.769,12.769,0,0,0-10.39-5.347h-5.9a12.769,12.769,0,0,0-10.39,5.347l-.954,1.335a12.7,12.7,0,0,1-5.425,4.342,180.287,180.287,0,0,0-19.136,9.5s-41.405,29.459-53.4,55.9c0,0,20.3,32.925,92.251,32.925S262.943,142.8,262.943,142.8c-11.371-25.067-51.2-53.77-51.2-53.77A182.3,182.3,0,0,0,189.719,77.857Z"
      style="fill:#667387"
    />
    <path
      d="M211.739,89.034c.127,8.706-1.849,32.441-26.21,40.888a43.244,43.244,0,0,1-28.816-.208c-25.593-9.269-25.918-35.643-25.568-42.362-18.262,10.411-42.929,28.5-54.92,54.94,0,0,21.819,33.88,93.775,33.88s93.775-33.88,93.775-33.88C252.4,117.222,229.636,99.661,211.739,89.034Z"
      style="fill:#363b42"
    />
    <path d="M53.6,182.7s-12.1,10.976-13.874,32.017H97.894S71.213,182.963,53.6,182.7Z" style="fill:#363b42" />
    <path
      d="M87.338,208.553l-20.9-2.1A113.506,113.506,0,0,0,40.4,208.886c-3.624.837-7.092,3.14-8.241,6.678a72.6,72.6,0,0,0-2.674,11.383s-.329,8.383-.094,12.846H89.94S100.174,213.053,87.338,208.553Z"
      style="fill:#667387"
    />
    <path
      d="M87.755,208.043a162.294,162.294,0,0,0-21.322-1.589l7.031,5.862a4.11,4.11,0,0,1-2.327,7.259,210.587,210.587,0,0,0-41.653,7.373,63.861,63.861,0,0,0-.694,12.845H91.074S100.591,212.542,87.755,208.043Z"
      style="fill:#363b42"
    />
    <path
      d="M93.286,256.377l.035-12.978a50.656,50.656,0,0,0-1.724-8.224,13.237,13.237,0,0,0-12.823-9.165c-11.909.111-36.543,1.641-54.621,11.5a11.081,11.081,0,0,0-5.794,8.7l-.975,10.8-.178,11.207Z"
      style="fill:#667387"
    />
    <path
      d="M93.32,243.4c-9.829-.97-44.481-2.894-75.936,13.617l-.992,10.992L94,256.268A86.752,86.752,0,0,0,93.32,243.4Z"
      style="fill:#363b42"
    />
    <path
      d="M223.924,245.153s7.584-5.941,17.439-6.33a129.856,129.856,0,0,0,6.4-34.024l-13.151,3.488L193,253H214.55Z"
      style="fill:#e88154"
    />
    <path
      d="M105.387,208.287l-12.4-1.192a122.616,122.616,0,0,0,5.937,32.611c4.636.065,15.822,1.556,25.54,13.3H147Z"
      style="fill:#e88154"
    />
    <path
      d="M87.376,250.141s10,1.5,10.518,12.99v8.661A9.555,9.555,0,0,1,89,281.332c-15.328,1.057-47.22,4.395-69.448,14.537A6.732,6.732,0,0,1,10,289.764v-14a12.728,12.728,0,0,1,7.38-11.445C30.388,258.112,58.741,246.835,87.376,250.141Z"
      style="fill:#667387"
    />
    <path
      d="M210.03,212.542H129.97l-18.649,15.125C123.112,289.748,170,289.742,170,289.742s46.888.006,58.679-62.075Z"
      style="fill:#f74f73"
    />
    <path
      d="M170,212.542H129.97l-18.649,15.125a111.022,111.022,0,0,0,4.755,17.486c4.161,1.1,9.092,1.162,13.134-2.367,0,0,17.888,18.591,40.79,18.591s40.79-18.591,40.79-18.591c4.042,3.529,8.973,3.467,13.134,2.367a111.022,111.022,0,0,0,4.755-17.486L210.03,212.542Z"
      style="fill:#c12140"
    />
    <path
      d="M195.233,254.385C185.528,240.831,170,241.842,170,241.842s-15.528-1.011-25.233,12.543a8.627,8.627,0,0,0,7.032,13.623h36.4a8.627,8.627,0,0,0,7.032-13.623Z"
      style="fill:#363b42"
    />
    <path d="M286.4,182.7s12.1,10.976,13.874,32.017H242.106S268.787,182.963,286.4,182.7Z" style="fill:#363b42" />
    <path
      d="M252.664,208.553l20.9-2.1a113.506,113.506,0,0,1,26.038,2.433c3.624.837,7.092,3.14,8.241,6.678a72.6,72.6,0,0,1,2.674,11.383s.456,8.383.222,12.846h-61.1S239.828,213.053,252.664,208.553Z"
      style="fill:#667387"
    />
    <path
      d="M310.516,226.948a210.587,210.587,0,0,0-41.653-7.373,4.11,4.11,0,0,1-2.327-7.259l7.031-5.862a162.294,162.294,0,0,0-21.322,1.589c-12.836,4.5-3.319,31.75-3.319,31.75H311.21A63.861,63.861,0,0,0,310.516,226.948Z"
      style="fill:#363b42"
    />
    <path
      d="M246.67,256.37l.009-12.971a50.656,50.656,0,0,1,1.724-8.224,13.237,13.237,0,0,1,12.823-9.165c11.909.111,36.543,1.641,54.621,11.5a11.081,11.081,0,0,1,5.794,8.7l.975,10.8L322.9,267.9Z"
      style="fill:#667387"
    />
    <path
      d="M322.616,257.016c-31.455-16.511-66.107-14.587-75.936-13.617A86.752,86.752,0,0,0,246,256.268l77.612,11.74Z"
      style="fill:#363b42"
    />
    <path
      d="M230.548,167.417,170,176.172l-60.548-8.755L84.1,202.622s8,17.143,21.771,27.577a18.762,18.762,0,0,0,22.08.291l10.417-7.312a14.676,14.676,0,0,1,2.221-1.224,1,1,0,0,1,1.278,1.433c-1.988,3.13-4.224,8.337-.664,12.427A58.351,58.351,0,0,0,168.541,252.8a5.319,5.319,0,0,0,2.918,0,57.457,57.457,0,0,0,27.334-16.983c3.748-4.43,1.777-9.226-.245-12.215a1,1,0,0,1,1.269-1.451,13.359,13.359,0,0,1,1.811,1.03l10.417,7.312a18.762,18.762,0,0,0,22.08-.291C247.9,219.765,255.9,202.622,255.9,202.622Z"
      style="fill:#f74f73"
    />
    <path
      d="M248.236,215.286c.136-.19.274-.378.407-.566q.627-.885,1.2-1.739c.041-.061.088-.126.129-.187l0,0a85.151,85.151,0,0,0,5.925-10.169l-25.348-35.205L170,176.172l-60.548-8.755L84.1,202.622a85.322,85.322,0,0,0,5.925,10.169l0,0c.049.073.105.151.155.224.4.594.815,1.2,1.253,1.813.086.121.178.244.265.366q.558.779,1.157,1.574c.15.2.3.4.453.6.083.109.161.216.246.325l.007,0A67.214,67.214,0,0,0,105.875,230.2a18.762,18.762,0,0,0,22.08.291c-5.708,1.7-13.332-2.745-13.332-2.745-16.944-9.28-9.976-19.529-9.976-19.529l-.109.009c.774-1.044,1.548-2.176,2.316-3.426l13.3-17.719s16.348,7.152,49.959,7.226v0h.516v0c33.612-.074,49.959-7.226,49.959-7.226l13.3,17.719c.675,1.1,1.355,2.1,2.034,3.041h-.007s6.4,10.626-10.542,19.906c0,0-8.317,5.384-13.332,2.745a18.762,18.762,0,0,0,22.08-.291,67.606,67.606,0,0,0,12.516-12.765l0,0c.035-.045.067-.09.1-.136.149-.2.291-.388.437-.583Q247.725,215.994,248.236,215.286Z"
      style="fill:#c12140"
    />
    <path
      d="M224.288,169.085c2.02,9.675.964,16.7-1.006,21.629a17.269,17.269,0,0,1-15.794,10.695,68.249,68.249,0,0,1-12.272-.9,15.816,15.816,0,0,1-11.861-9.153l-5.071-11.284.188-5.128,45.816-6.625Z"
      style="fill:#363b42"
    />
    <path
      d="M272.583,105.677c-4.421,9.384-15.83,30.3-35.09,44.186,0,0-11.272,10.019-19.486,12.4l30.582,41.534c3.452,4.722,8.655,6.556,13.556,3.362a24.148,24.148,0,0,1,3.089-1.392c13.733-9.451,35.739-28.6,43.947-58.347a16.536,16.536,0,0,0-4.153-16.074l-26.506-26.683A3.677,3.677,0,0,0,272.583,105.677Z"
      style="fill:#667387"
    />
    <circle cx="262.943" cy="147.809" r="9.171" style="fill:#363b42" />
    <path
      d="M254.03,249.99a13.489,13.489,0,0,0-6.469,2.337c-2.565,1.811-5.194,5.058-5.455,10.8v8.661a9.555,9.555,0,0,0,8.892,9.54c15.328,1.057,47.22,4.395,69.448,14.537A6.732,6.732,0,0,0,330,289.764v-14a12.728,12.728,0,0,0-7.38-11.445C309.825,258.213,282.183,247.2,254.03,249.99Z"
      style="fill:#667387"
    />
    <path
      d="M115.712,169.085c-2.02,9.675-.964,16.7,1.006,21.629a17.269,17.269,0,0,0,15.794,10.695,68.249,68.249,0,0,0,12.272-.9,15.816,15.816,0,0,0,11.861-9.153l5.071-11.284-.188-5.128-45.816-6.625Z"
      style="fill:#363b42"
    />
    <path
      d="M67.417,105.677c4.454,9.452,16,30.608,35.512,44.488,0,0,11.388,9.445,19.423,11.769L91.475,204.2c-3.452,4.722-9.239,5.92-14.139,2.726l-2.526-1.129c-13.731-9.44-35.774-28.6-43.991-58.377a16.536,16.536,0,0,1,4.153-16.074l26.506-26.683A3.677,3.677,0,0,1,67.417,105.677Z"
      style="fill:#667387"
    />
    <circle cx="77.057" cy="147.809" r="9.171" style="fill:#363b42" />
    <path
      d="M77.35,207.493A10.988,10.988,0,0,0,92.236,204.8l32.223-44.074a71.294,71.294,0,0,1-21.526-10.566c-.116.117-.231.234-.339.361-2.473,2.932-6.316,9.069-6.428,18.982a6.148,6.148,0,0,0,1.29,3.826,6.121,6.121,0,0,1-.053,7.566L79.23,203.669a5.442,5.442,0,0,1-4.42,2.122C75.692,206.4,76.542,206.966,77.35,207.493Z"
      style="fill:#363b42"
    />
    <path
      d="M261.516,203.669l-18.172-22.775a6.118,6.118,0,0,1-.053-7.566,6.147,6.147,0,0,0,1.289-3.826c-.111-9.913-3.954-16.05-6.428-18.982a5.848,5.848,0,0,0-.66-.657,71.476,71.476,0,0,1-21.951,10.862L247.764,204.8a10.988,10.988,0,0,0,14.886,2.694q1.233-.8,2.584-1.731A5.451,5.451,0,0,1,261.516,203.669Z"
      style="fill:#363b42"
    />
    <path
      d="M236.012,163.278c-3.08-10.9-9.62-15.487-14.582-17.42a14.934,14.934,0,0,0-9.891-.307L170,158.577l-41.539-13.026a14.934,14.934,0,0,0-9.891.307c-4.962,1.933-11.5,6.522-14.582,17.42a8.459,8.459,0,0,0,4.9,10.051c10.066,4.223,31.719,11.526,61.109,11.526s51.044-7.3,61.109-11.526A8.459,8.459,0,0,0,236.012,163.278Z"
      style="fill:#f74f73"
    />
    <path
      d="M226.509,148.651a22.2,22.2,0,0,0-5.079-2.793,14.934,14.934,0,0,0-9.891-.307L170,158.577l-41.539-13.026a14.934,14.934,0,0,0-9.891.307,22.29,22.29,0,0,0-3.727,1.877c3.732,5.324,19.381,23.977,55.53,23.977C201.373,171.712,219.223,156.637,226.509,148.651Z"
      style="fill:#c12140"
    />
    <path
      d="M243.188,19.123a41.9,41.9,0,0,0-17,12.613,15.228,15.228,0,0,1-13.976,5.345,24.669,24.669,0,0,0-6.48-.017,7.029,7.029,0,0,0-3.762,12.16c27.548,25.122,13.4,63.037,13.4,63.037C203.876,144.123,170,141.5,170,141.5s-33.876,2.628-45.373-29.234c0,0-14.148-37.915,13.4-63.037a7.029,7.029,0,0,0-3.762-12.16,24.669,24.669,0,0,0-6.48.017,15.228,15.228,0,0,1-13.976-5.345,41.9,41.9,0,0,0-17-12.613,4.967,4.967,0,0,0-6.192,7.062l.221.391a55.915,55.915,0,0,1,6.732,32.5C95.437,82.647,94.019,161.473,170,164.855c75.981-3.382,74.562-82.208,72.427-105.779a55.915,55.915,0,0,1,6.732-32.5c.074-.131.148-.262.222-.391A4.967,4.967,0,0,0,243.188,19.123Z"
      style="fill:#ffc257"
    />
    <path
      d="M181.607,155.688a22.675,22.675,0,0,0,8.944-17.656A51.769,51.769,0,0,1,170,141.5a51.769,51.769,0,0,1-20.551-3.463,22.675,22.675,0,0,0,8.944,17.656A21.675,21.675,0,0,0,170,159.819,21.675,21.675,0,0,0,181.607,155.688Z"
      style="fill:#e87b31"
    />
    <path
      d="M295.12,156.142a4,4,0,1,1,0-8,3.987,3.987,0,0,1,2.83,1.17,4.005,4.005,0,0,1-2.83,6.83Z"
      style="fill:#363b42"
    />
    <path
      d="M281.72,177.132a4.047,4.047,0,0,1-2.83-1.17,4.093,4.093,0,0,1-.49-.61,4.033,4.033,0,0,1-.6-1.44,3.842,3.842,0,0,1,0-1.56,4.033,4.033,0,0,1,.6-1.44,3.607,3.607,0,0,1,1.1-1.1,4.033,4.033,0,0,1,1.44-.6,3.728,3.728,0,0,1,1.56,0,4.033,4.033,0,0,1,1.44.6,4.093,4.093,0,0,1,.61.49,4.919,4.919,0,0,1,.5.61,4.524,4.524,0,0,1,.36.69,3.832,3.832,0,0,1,.23.75,3.842,3.842,0,0,1,0,1.56,3.832,3.832,0,0,1-.23.75,4.524,4.524,0,0,1-.36.69,4,4,0,0,1-1.11,1.11,4.524,4.524,0,0,1-.69.36,3.832,3.832,0,0,1-.75.23A4.129,4.129,0,0,1,281.72,177.132Z"
      style="fill:#363b42"
    />
    <path
      d="M264.78,194.152a4.15,4.15,0,0,1-.79-.08,3.956,3.956,0,0,1-.74-.23,3.6,3.6,0,0,1-.7-.37,4.013,4.013,0,0,1-.6-.49,3.605,3.605,0,0,1-.5-.61,4.579,4.579,0,0,1-.37-.69,3.832,3.832,0,0,1-.23-.75,3.843,3.843,0,0,1,0-1.56,4.033,4.033,0,0,1,.6-1.44,3.251,3.251,0,0,1,.5-.61,4.82,4.82,0,0,1,.6-.5,4.2,4.2,0,0,1,.7-.36,3.956,3.956,0,0,1,.74-.23,3.776,3.776,0,0,1,1.57,0,4.3,4.3,0,0,1,.75.23,4.524,4.524,0,0,1,.69.36,4.82,4.82,0,0,1,.6.5,3.694,3.694,0,0,1,.5.61,4.033,4.033,0,0,1,.6,1.44,3.843,3.843,0,0,1,0,1.56,4.033,4.033,0,0,1-.6,1.44,4.161,4.161,0,0,1-.5.61,4.013,4.013,0,0,1-.6.49,3.828,3.828,0,0,1-.69.37,4.3,4.3,0,0,1-.75.23A4.129,4.129,0,0,1,264.78,194.152Z"
      style="fill:#363b42"
    />
    <path
      d="M294.12,220.539a4.131,4.131,0,0,1-.78-.081,4.049,4.049,0,0,1-.75-.229,3.9,3.9,0,0,1-.69-.371,4.093,4.093,0,0,1-.61-.49,4.043,4.043,0,0,1-.49-.61,4.033,4.033,0,0,1-.6-1.44,4.119,4.119,0,0,1-.08-.779,4.065,4.065,0,0,1,1.17-2.831,4.919,4.919,0,0,1,.61-.5,3.712,3.712,0,0,1,.69-.359,4,4,0,0,1,4.36,6.519,3.639,3.639,0,0,1-.61.49,3.577,3.577,0,0,1-.69.371,3.83,3.83,0,0,1-.75.229A4.047,4.047,0,0,1,294.12,220.539Z"
      style="fill:#363b42"
    />
    <path
      d="M300.27,245.415a4,4,0,0,1-2.83-6.83,4.161,4.161,0,0,1,.61-.5,4.579,4.579,0,0,1,.69-.37,4.659,4.659,0,0,1,.75-.23,4.094,4.094,0,0,1,1.56,0,4.659,4.659,0,0,1,.75.23,4.579,4.579,0,0,1,.69.37,3.694,3.694,0,0,1,.61.5,4,4,0,0,1,0,5.65,4.161,4.161,0,0,1-.61.5,4.033,4.033,0,0,1-1.44.6A4.129,4.129,0,0,1,300.27,245.415Z"
      style="fill:#363b42"
    />
    <path
      d="M275.22,240.511a3.914,3.914,0,0,1-3.32-1.78,4.033,4.033,0,0,1-.6-1.44,3.842,3.842,0,0,1,0-1.56,4.033,4.033,0,0,1,.6-1.44,4,4,0,0,1,6.15-.61,4.919,4.919,0,0,1,.5.61,5.7,5.7,0,0,1,.37.69,4.635,4.635,0,0,1,.22.75,3.842,3.842,0,0,1,0,1.56,4.635,4.635,0,0,1-.22.75,5.7,5.7,0,0,1-.37.69,4.919,4.919,0,0,1-.5.61A4.065,4.065,0,0,1,275.22,240.511Z"
      style="fill:#363b42"
    />
    <path
      d="M272.65,269.372a4.114,4.114,0,0,1-.78-.07,5.371,5.371,0,0,1-.75-.23,4.579,4.579,0,0,1-.69-.37,3.62,3.62,0,0,1-.6-.5,3.251,3.251,0,0,1-.5-.61,4.143,4.143,0,0,1-.37-.69,3.832,3.832,0,0,1-.23-.75,4.047,4.047,0,0,1-.08-.78,4.129,4.129,0,0,1,.08-.78,4.053,4.053,0,0,1,.23-.75,4.579,4.579,0,0,1,.37-.69,3.188,3.188,0,0,1,.5-.6,4.035,4.035,0,0,1,3.61-1.1,3.956,3.956,0,0,1,.74.23,4.049,4.049,0,0,1,1.3.87,3.62,3.62,0,0,1,.5.6,4.579,4.579,0,0,1,.37.69,4.99,4.99,0,0,1,.23.75,4.114,4.114,0,0,1,.07.78,3.995,3.995,0,0,1-4,4Z"
      style="fill:#363b42"
    />
    <path d="M302.82,276.112a4,4,0,0,1-2.83-6.83,4,4,0,1,1,2.83,6.83Z" style="fill:#363b42" />
    <path
      d="M45.877,220.539a4.047,4.047,0,0,1-.78-.081,3.83,3.83,0,0,1-.75-.229,3.577,3.577,0,0,1-.69-.371,3.722,3.722,0,0,1-.61-.49,4.109,4.109,0,0,1-.5-.61,4.485,4.485,0,0,1-.37-.69,3.767,3.767,0,0,1-.219-.75,3.437,3.437,0,0,1-.081-.779,4.022,4.022,0,0,1,1.17-2.831,4.393,4.393,0,0,1,.61-.5,3.424,3.424,0,0,1,.69-.359,3.835,3.835,0,0,1,.75-.231,4,4,0,0,1,3.611,6.75,4.1,4.1,0,0,1-.611.49,3.862,3.862,0,0,1-.69.371,4.026,4.026,0,0,1-.75.229A4.123,4.123,0,0,1,45.877,220.539Z"
      style="fill:#363b42"
    />
    <path
      d="M39.729,245.415a4.129,4.129,0,0,1-.78-.08,3.832,3.832,0,0,1-.75-.23,4.579,4.579,0,0,1-.69-.37,4.161,4.161,0,0,1-.61-.5,4,4,0,0,1,0-5.65,3.694,3.694,0,0,1,.61-.5,4.579,4.579,0,0,1,.69-.37,4.659,4.659,0,0,1,.75-.23,4.094,4.094,0,0,1,1.56,0,4.659,4.659,0,0,1,.75.23,4.579,4.579,0,0,1,.69.37,4.161,4.161,0,0,1,.61.5,4.005,4.005,0,0,1-2.83,6.83Z"
      style="fill:#363b42"
    />
    <path
      d="M64.78,240.533a4.042,4.042,0,0,1-2.83-1.17,4.919,4.919,0,0,1-.5-.61,4.524,4.524,0,0,1-.36-.69,3.832,3.832,0,0,1-.23-.75,3.843,3.843,0,0,1,0-1.56,3.832,3.832,0,0,1,.23-.75,4.524,4.524,0,0,1,.36-.69,4.994,4.994,0,0,1,.5-.61,4,4,0,0,1,5.66,5.66,4.919,4.919,0,0,1-.61.5,4.436,4.436,0,0,1-.69.36,3.832,3.832,0,0,1-.75.23A4.129,4.129,0,0,1,64.78,240.533Z"
      style="fill:#363b42"
    />
    <path
      d="M67.35,269.372a3.995,3.995,0,0,1-4-4,4.114,4.114,0,0,1,.07-.78,4.99,4.99,0,0,1,.23-.75,4.579,4.579,0,0,1,.37-.69,3.62,3.62,0,0,1,.5-.6,4.049,4.049,0,0,1,1.3-.87,3.956,3.956,0,0,1,.74-.23,4.146,4.146,0,0,1,1.57,0,4.3,4.3,0,0,1,.75.23,3.828,3.828,0,0,1,.69.37,4.313,4.313,0,0,1,1.1,1.1,3.828,3.828,0,0,1,.37.69,4.053,4.053,0,0,1,.23.75,4.129,4.129,0,0,1,.08.78,4.012,4.012,0,0,1-4,4Z"
      style="fill:#363b42"
    />
    <path d="M37.18,276.112a4.012,4.012,0,0,1-4-4,4,4,0,1,1,8,0,3.995,3.995,0,0,1-4,4Z" style="fill:#363b42" />
    <path d="M44.88,156.142a4.012,4.012,0,1,1,2.83-1.18A4,4,0,0,1,44.88,156.142Z" style="fill:#363b42" />
    <path
      d="M58.28,177.132a4.129,4.129,0,0,1-.78-.08,3.832,3.832,0,0,1-.75-.23,4.524,4.524,0,0,1-.69-.36,4,4,0,0,1-1.11-1.11,4.524,4.524,0,0,1-.36-.69,3.832,3.832,0,0,1-.23-.75,3.843,3.843,0,0,1,0-1.56,3.832,3.832,0,0,1,.23-.75,4.524,4.524,0,0,1,.36-.69,4.919,4.919,0,0,1,.5-.61,4.093,4.093,0,0,1,.61-.49,4.033,4.033,0,0,1,1.44-.6,3.729,3.729,0,0,1,1.56,0,4.033,4.033,0,0,1,1.44.6,4.093,4.093,0,0,1,.61.49,4.919,4.919,0,0,1,.5.61,4.524,4.524,0,0,1,.36.69,3.832,3.832,0,0,1,.23.75,3.842,3.842,0,0,1,0,1.56,3.832,3.832,0,0,1-.23.75,4.524,4.524,0,0,1-.36.69,4,4,0,0,1-1.11,1.11,4.524,4.524,0,0,1-.69.36,3.832,3.832,0,0,1-.75.23A4.129,4.129,0,0,1,58.28,177.132Z"
      style="fill:#363b42"
    />
    <path
      d="M75.22,194.152a3.995,3.995,0,0,1-3.99-4,4.114,4.114,0,0,1,.07-.78,4.033,4.033,0,0,1,.6-1.44,3.251,3.251,0,0,1,.5-.61,4.021,4.021,0,0,1,3.61-1.09,3.956,3.956,0,0,1,.74.23,3.576,3.576,0,0,1,1.3.86,3.251,3.251,0,0,1,.5.61,4.033,4.033,0,0,1,.6,1.44,3.842,3.842,0,0,1,0,1.56,4.033,4.033,0,0,1-.6,1.44,3.605,3.605,0,0,1-.5.61A4.029,4.029,0,0,1,75.22,194.152Z"
      style="fill:#363b42"
    />
    <path
      d="M235.353,187.824l4.759,6.509a130.039,130.039,0,0,0,59.151-68.795l-6.331-6.373A123.629,123.629,0,0,1,235.353,187.824Z"
      style="fill:#363b42"
    />
    <path
      d="M47.068,119.165l-6.331,6.373a130.039,130.039,0,0,0,59.151,68.8l4.759-6.509A123.629,123.629,0,0,1,47.068,119.165Z"
      style="fill:#363b42"
    />
    <path
      d="M183.859,126.881c-4.944-7.589-13.859-7.617-13.859-7.617s-8.915.028-13.858,7.617a17.056,17.056,0,0,0,4.515,23.158A18.107,18.107,0,0,0,170,153.176a18.114,18.114,0,0,0,9.344-3.137A17.058,17.058,0,0,0,183.859,126.881Z"
      style="fill:#ffc257"
    />
    <path
      d="M168.608,130.571a9.366,9.366,0,0,1,4.255-3.983,1.177,1.177,0,0,0-.24-2.2,12.111,12.111,0,0,0-2.623-.4s-6.754-.692-10,5.493c-3.032,5.786-2.118,12.987,3.256,16.7A13.056,13.056,0,0,0,170,148.449l.032,0a1.172,1.172,0,0,0,.675-2.054C167.929,144.038,164.125,138.944,168.608,130.571Z"
      style="fill:#ffecd2"
    />
    <path
      d="M138.3,95.442a42.543,42.543,0,0,0,3.405,9.376,4.7,4.7,0,0,0,8.3.138,89.335,89.335,0,0,1,11.318-16.189,3.573,3.573,0,0,0-3.483-5.845,51.975,51.975,0,0,0-17.611,7.54A4.685,4.685,0,0,0,138.3,95.442Z"
      style="fill:#93a1b5"
    />
    <path
      d="M165.79,210.867v27.506a3.7,3.7,0,0,1-5.059,3.444,38.932,38.932,0,0,1-9.251-5,9.936,9.936,0,0,1-3.362-10.9,53.752,53.752,0,0,1,9.927-17.817,4.4,4.4,0,0,1,3.382-1.6h0A4.363,4.363,0,0,1,165.79,210.867Z"
      style="fill:#ff9cb6"
    />
  </g>
  <g>
    <path
      d="M45.877,220.539a4.047,4.047,0,0,1-.78-.081,3.83,3.83,0,0,1-.75-.229,3.577,3.577,0,0,1-.69-.371,3.722,3.722,0,0,1-.61-.49,4.109,4.109,0,0,1-.5-.61,4.485,4.485,0,0,1-.37-.69,3.767,3.767,0,0,1-.219-.75,3.437,3.437,0,0,1-.081-.779,4.022,4.022,0,0,1,1.17-2.831,4.393,4.393,0,0,1,.61-.5,3.424,3.424,0,0,1,.69-.359,3.835,3.835,0,0,1,.75-.231,4,4,0,0,1,3.611,6.75,4.1,4.1,0,0,1-.611.49,3.862,3.862,0,0,1-.69.371,4.026,4.026,0,0,1-.75.229A4.123,4.123,0,0,1,45.877,220.539Z"
      style="fill:#363b42"
    />
  </g>
</svg>